<svg width="3839" height="3255" viewBox="0 0 3839 3255" fill="none" xmlns="http://www.w3.org/2000/svg">
<rect width="3836" height="3253" fill="#F9F9F9"/>
<path d="M2009.29 2515.25L1537.5 3255H3838.34V769.837L3623.62 1525.58L3224.72 2133.38L2538.21 2405.29L2009.29 2515.25Z" fill="#A209FF" fill-opacity="0.1"/>
<path d="M1806.64 360.193L2272.64 0.00012207L-0.000594067 0.000320751L-0.000488281 1210.05L212.087 842.073L606.103 546.131L1284.2 413.735L1806.64 360.193Z" fill="#A209FF" fill-opacity="0.1"/>
<path d="M2182.55 2599.45L1919.17 3255H3838.34V1478.95L3434.49 2200.42L2997.28 2332.24L2612.74 2713.46L2182.55 2599.45Z" fill="#A209FF" fill-opacity="0.1"/>
<path d="M1635.21 319.372L1895.32 0.000549316L4.64275e-05 0.00071501L0.00012207 865.254L398.832 513.772L830.61 449.551L1210.37 263.829L1635.21 319.372Z" fill="#A209FF" fill-opacity="0.1"/>
<path d="M2602.91 2871.61L2343.89 2912.63L2227.1 3073.11L2083.98 3255H3838.34V2151.21L3496.89 2363.47L3121.85 2559.56L2882.14 2732.53L2602.91 2871.61Z" fill="#A209FF" fill-opacity="0.1"/>
<path d="M1220.16 186.045L1475.98 166.142L1591.32 88.2634L1732.68 0.000732422L0.000807666 0.000883897L0.000854492 535.634L337.235 432.63L707.64 337.476L944.387 253.54L1220.16 186.045Z" fill="#A209FF" fill-opacity="0.1"/>
<path d="M3028.98 3004.18L2859.28 3031.01L2782.77 3136.01L2689.01 3255H3838.34V2532.87L3614.64 2671.74H3358.43L3182.08 2902.83L3028.98 3004.18Z" fill="#A209FF" fill-opacity="0.1"/>
<path d="M800.205 122.021L967.98 108.968L1043.62 57.8896L1136.32 0.000732422L0.00167827 0.000831762L0.00170898 351.307L221.166 283.749L474.481 283.749L648.833 171.327L800.205 122.021Z" fill="#A209FF" fill-opacity="0.1"/>
</svg>
